<?xml version="1.0" encoding="utf-8"?>
<!-- Svg Vector Icons : http://www.onlinewebfonts.com/icon -->
<!DOCTYPE svg PUBLIC "-//W3C//DTD SVG 1.1//EN" "http://www.w3.org/Graphics/SVG/1.1/DTD/svg11.dtd">
<svg version="1.1" xmlns="http://www.w3.org/2000/svg" xmlns:xlink="http://www.w3.org/1999/xlink" x="0px" y="0px" viewBox="0 0 1000 1000" enable-background="new 0 0 1000 1000" fill="#33d6ff" xml:space="preserve">
<metadata> Svg Vector Icons : http://www.onlinewebfonts.com/icon </metadata>
<g><g><g id="_x31_0_28_"><g><path d="M360.6,326.9l106.7-129.4v465.8c0,18.1,14.6,32.7,32.7,32.7c18,0,32.7-14.6,32.7-32.7v-467l107.8,130.6c12.8,12.9,33.6,12.9,46.4,0c12.8-12.9,12.8-33.7,0-46.6L525.4,84.6c-6.8-6.9-15.9-9.8-24.8-9.3c-9-0.5-18,2.5-24.8,9.3L314.2,280.3c-12.8,12.9-12.8,33.7,0,46.6C327,339.8,347.8,339.8,360.6,326.9z M957.3,598.1c-18,0-32.7,14.6-32.7,32.7v228.7H75.3V630.7c0-18-14.6-32.7-32.7-32.7c-18,0-32.7,14.6-32.7,32.7v261.3c0,18,14.6,32.7,32.7,32.7h914.7c18,0,32.7-14.6,32.7-32.7V630.7C990,612.7,975.4,598.1,957.3,598.1z"/></g></g></g><g></g><g></g><g></g><g></g><g></g><g></g><g></g><g></g><g></g><g></g><g></g><g></g><g></g><g></g><g></g></g>
</svg>
